<svg xmlns="http://www.w3.org/2000/svg" viewBox="0 0 493.072 493.072"><path d="M246.536 55.764c-105.361 0-190.771 85.411-190.771 190.771s85.411 190.771 190.771 190.771c105.358 0 190.771-85.411 190.771-190.771S351.894 55.764 246.536 55.764zm107.582 254.177a8.802 8.802 0 01-12.279 2.066L241.43 240.503c-.17-.121-.301-.272-.459-.403-.26-.214-.526-.421-.759-.666-.196-.203-.358-.426-.531-.644-.182-.228-.369-.448-.53-.693-.152-.238-.272-.491-.401-.738-.134-.257-.273-.51-.381-.782-.104-.264-.174-.536-.251-.808-.079-.277-.17-.545-.222-.832-.061-.323-.075-.65-.098-.976-.016-.213-.064-.414-.064-.632V110.061a8.805 8.805 0 018.805-8.805 8.805 8.805 0 018.805 8.805v118.73l96.713 68.871c3.958 2.819 4.883 8.317 2.061 12.279z"/><path d="M246.536 0C110.379 0 0 110.379 0 246.536s110.379 246.536 246.536 246.536c136.156 0 246.536-110.379 246.536-246.536S382.692 0 246.536 0zm0 475.462c-126.432 0-228.926-102.495-228.926-228.926S120.104 17.61 246.536 17.61s228.926 102.495 228.926 228.926-102.494 228.926-228.926 228.926z"/></svg>